<?xml version="1.0" standalone="no"?>
<!DOCTYPE svg PUBLIC "-//W3C//DTD SVG 20010904//EN"
 "http://www.w3.org/TR/2001/REC-SVG-20010904/DTD/svg10.dtd">
<svg version="1.0" xmlns="http://www.w3.org/2000/svg"
 width="614.000000pt" height="614.000000pt" viewBox="0 0 614.000000 614.000000"
 preserveAspectRatio="xMidYMid meet">
<metadata>
Created by potrace 1.16, written by Peter Selinger 2001-2019
</metadata>
<g transform="translate(0.000000,614.000000) scale(0.100000,-0.100000)"
fill="#000000" stroke="none">
<path d="M2600 4425 c-219 -30 -415 -129 -575 -289 -273 -273 -365 -643 -254
-1016 22 -75 106 -250 120 -250 5 0 9 -6 9 -13 0 -17 150 -188 186 -212 16
-10 40 -29 54 -42 14 -13 30 -23 37 -23 7 0 13 -4 13 -9 0 -16 207 -111 288
-131 516 -129 1031 140 1215 635 71 191 81 413 27 615 -25 91 -118 282 -160
328 -16 18 -30 37 -30 41 0 11 -135 139 -194 184 -66 50 -234 131 -326 156
-70 19 -233 42 -290 40 -14 -1 -68 -7 -120 -14z m342 -219 c113 -29 214 -77
295 -143 69 -55 158 -150 185 -196 92 -162 119 -248 126 -404 9 -233 -48 -404
-193 -571 -100 -115 -215 -192 -365 -244 -90 -31 -103 -32 -240 -33 -92 0
-165 5 -199 14 -371 95 -621 411 -621 787 0 174 39 308 130 448 113 172 281
293 484 346 108 29 277 27 398 -4z"/>
<path d="M3576 2580 l-140 -140 195 -195 c107 -106 211 -204 232 -216 25 -13
56 -21 85 -21 154 0 251 152 184 287 -13 28 -399 425 -411 425 -4 0 -69 -63
-145 -140z"/>
</g>
</svg>
